#!OML:ASF F:\VICON\USERDATA\INSTALL\rory3\rory3.ASF
:FULLY-SPECIFIED
:DEGREES
278
root 4.52249 17.2036 0.521473 11.2549 -2.00446 -1.75425
lowerback -1.53055 -1.69453 8.10217
upperback -4.81759 -2.15994 0.872201
thorax -4.43475 -1.37977 -3.56699
lowerneck -9.8206 2.76657 -1.00284
upperneck 44.943 4.50555 0.0529648
head 18.638 1.59563 0.986052
rclavicle 6.48535e-015 -7.95139e-015
rhumerus -1.70047 -16.4424 -11.5786
rradius 116.102
rwrist -62.8963
rhand -1.38537 -43.9902
rfingers 7.12502
rthumb 24.2628 -72.475
lclavicle 6.48535e-015 -7.95139e-015
lhumerus 30.8083 27.9131 4.69781
lradius 75.6413
lwrist 52.3655
lhand -28.4342 -27.2388
lfingers 7.12502
lthumb -1.80524 2.73335
rfemur -32.6469 6.17968 5.25888
rtibia 58.5898
rfoot 6.79315 -13.1405
rtoes -15.14
lfemur -23.8813 1.27107 -28.9399
ltibia 31.7143
lfoot -17.8716 12.7916
ltoes 11.9135
279
root 4.51657 17.201 0.508318 11.2653 -2.06584 -1.68697
lowerback -1.37917 -1.71107 7.92953
upperback -4.82305 -2.16943 0.863676
thorax -4.51891 -1.3809 -3.47436
lowerneck -9.74555 2.68366 -0.950289
upperneck 44.9046 4.42405 -0.113802
head 18.6035 1.54993 0.879541
rclavicle 3.2346e-014 -7.15625e-015
rhumerus -1.89517 -16.0643 -11.8571
rradius 116.104
rwrist -62.7479
rhand -1.70285 -43.9746
rfingers 7.12502
rthumb 23.9584 -72.4997
lclavicle 3.2346e-014 -7.15625e-015
lhumerus 30.7015 27.7111 4.84866
lradius 76.1078
lwrist 52.6099
lhand -28.4781 -27.4951
lfingers 7.12502
lthumb -1.84767 2.47666
rfemur -33.252 6.3098 5.43244
rtibia 59.1394
rfoot 6.99855 -13.2012
rtoes -14.3277
lfemur -24.0212 1.07745 -28.9796
ltibia 31.7922
lfoot -17.7149 13.0686
ltoes 11.7623
280
root 4.51207 17.1989 0.498489 11.2089 -2.1458 -1.67912
lowerback -1.24888 -1.71156 7.85451
upperback -4.73115 -2.16362 0.847297
thorax -4.49169 -1.3718 -3.44791
lowerneck -9.92256 2.68822 -0.869138
upperneck 45.084 4.43343 -0.150849
head 18.7738 1.5553 0.855814
rclavicle -9.61e-015 -1.59028e-015
rhumerus -2.02222 -15.8477 -12.2421
rradius 116.032
rwrist -62.6494
rhand -2.10478 -43.8965
rfingers 7.12502
rthumb 23.5729 -72.4718
lclavicle -9.61e-015 -1.59028e-015
lhumerus 30.7575 27.659 5.20104
lradius 76.517
lwrist 52.7581
lhand -28.5498 -27.0037
lfingers 7.12502
lthumb -1.91694 2.96745
rfemur -33.7818 6.45409 5.67116
rtibia 59.6533
rfoot 7.18673 -12.9811
rtoes -14.5791
lfemur -24.0494 0.836648 -28.959
ltibia 31.8488
lfoot -17.5617 13.4868
ltoes 11.6198
281
root 4.5123 17.1985 0.494772 11.0987 -2.17402 -1.76404
lowerback -1.16615 -1.70846 8.06949
upperback -4.55953 -2.16003 0.757047
thorax -4.37193 -1.37123 -3.66324
lowerneck -10.2328 2.74548 -0.804928
upperneck 45.309 4.46256 -0.0160589
head 19.0041 1.58599 0.9258
rclavicle 1.73937e-014 -2.18663e-014
rhumerus -2.1677 -15.7381 -12.7829
rradius 115.945
rwrist -62.5308
rhand -2.18238 -43.6074
rfingers 7.12502
rthumb 23.4985 -72.1922
lclavicle 1.73937e-014 -2.18663e-014
lhumerus 30.8697 27.6506 5.43568
lradius 76.8753
lwrist 52.7849
lhand -28.3661 -26.0432
lfingers 7.12502
lthumb -1.73946 3.92941
rfemur -34.1279 6.56574 6.01557
rtibia 60.0996
rfoot 6.94191 -12.9577
rtoes -14.7874
lfemur -23.9427 0.752508 -28.8783
ltibia 31.9211
lfoot -17.534 13.7402
ltoes 11.3057
282
root 4.51535 17.1975 0.492898 11.0221 -2.13319 -1.85271
lowerback -1.13038 -1.73159 8.4386
upperback -4.40961 -2.19508 0.6025
thorax -4.26465 -1.39762 -4.03121
lowerneck -10.3557 2.78179 -0.801721
upperneck 45.3129 4.43765 0.172928
head 19.0317 1.59879 1.015
rclavicle 4.81929e-014 -2.5842e-014
rhumerus -2.31913 -15.6861 -13.416
rradius 115.956
rwrist -62.5282
rhand -1.75035 -43.7886
rfingers 7.12502
rthumb 23.9128 -72.3197
lclavicle 4.81929e-014 -2.5842e-014
lhumerus 30.9103 27.6092 5.48001
lradius 77.2257
lwrist 53.1191
lhand -28.0868 -26.622
lfingers 7.12502
lthumb -1.46974 3.35264
rfemur -34.444 6.58171 6.36759
rtibia 60.5073
rfoot 6.8992 -12.9327
rtoes -14.2255
lfemur -23.8743 0.761137 -28.8085
ltibia 32.0246
lfoot -17.6032 13.774
ltoes 11.057
283
root 4.51569 17.1918 0.488514 11.0256 -2.07054 -1.84498
lowerback -1.20983 -1.75773 8.55744
upperback -4.27386 -2.24611 0.515931
thorax -4.09321 -1.41856 -4.19203
lowerneck -10.4305 2.72228 -0.875799
upperneck 45.2564 4.32776 0.251355
head 19.0097 1.55186 1.04687
rclavicle -5.59082e-015 -1.82882e-014
rhumerus -2.34404 -15.6186 -13.9875
rradius 115.9
rwrist -62.3293
rhand -1.3297 -44.1101
rfingers 7.12502
rthumb 24.3162 -72.5877
lclavicle -5.59082e-015 -1.82882e-014
lhumerus 31.0418 27.6358 5.74808
lradius 77.5671
lwrist 53.6559
lhand -27.8985 -28.0896
lfingers 7.12502
lthumb -1.28785 1.88625
rfemur -34.8758 6.51603 6.60896
rtibia 60.947
rfoot 6.87132 -12.7868
rtoes -14.3661
lfemur -23.9485 0.68878 -28.8095
ltibia 32.1465
lfoot -17.7146 13.7161
ltoes 11.3791
284
root 4.51388 17.1854 0.484387 11.0825 -2.06509 -1.78241
lowerback -1.33176 -1.75857 8.46776
upperback -4.17393 -2.26632 0.485346
thorax -3.91775 -1.41634 -4.17995
lowerneck -10.5145 2.64273 -0.845817
upperneck 45.2509 4.24562 0.130416
head 19.0379 1.50637 0.969686
rclavicle 5.96354e-015 2.14687e-014
rhumerus -2.39967 -15.4173 -14.4256
rradius 115.767
rwrist -62.0566
rhand -1.28513 -44.0296
rfingers 7.12502
rthumb 24.3589 -72.5015
lclavicle 5.96354e-015 2.14687e-014
lhumerus 31.1359 27.5491 6.06132
lradius 77.9305
lwrist 53.9499
lhand -27.9348 -28.4289
lfingers 7.12502
lthumb -1.32299 1.5467
rfemur -35.3787 6.48365 6.7821
rtibia 61.4146
rfoot 6.55544 -12.8949
rtoes -14.9056
lfemur -24.0981 0.655064 -28.8743
ltibia 32.2682
lfoot -17.7567 13.7169
ltoes 11.5556
